<svg width="64px" height="64px" viewBox="-7.47 -7.47 89.61 89.61" id="svg2" version="1.1"
    xmlns="http://www.w3.org/2000/svg" xmlns:svg="http://www.w3.org/2000/svg" fill="#000000"
    stroke="#000000" transform="matrix(1, 0, 0, 1, 0, 0)rotate(0)">
    <g id="SVGRepo_bgCarrier" stroke-width="0"></g>
    <g id="SVGRepo_tracerCarrier" stroke-linecap="round" stroke-linejoin="round" stroke="#CCCCCC"
        stroke-width="4.181318232000001"></g>
    <g id="SVGRepo_iconCarrier">
        <defs id="defs6">
            <clipPath clipPathUnits="userSpaceOnUse" id="clipPath152">
                <path d="M 0,64 H 64 V 0 H 0 Z" id="path150"></path>
            </clipPath>
        </defs>
        <g id="g144" transform="matrix(1.3333333,0,0,-1.3333333,-21.333333,79.999998)">
            <g id="g146">
                <g clip-path="url(#clipPath152)" id="g148">
                    <g id="g154" transform="translate(45.8809,7.1982)">
                        <path
                            d="m 0,0 c -0.368,-0.189 -0.82,-0.059 -1.03,0.295 l -9.071,15.286 v 3.58 L 0.328,1.082 C 0.435,0.897 0.46,0.682 0.399,0.477 0.339,0.271 0.2,0.104 0.009,0.005 Z m -12.101,-0.422 c 0,-0.428 -0.349,-0.776 -0.78,-0.776 -0.431,0 -0.78,0.348 -0.78,0.776 v 15.454 3.085 h 0.18 0.6 0.78 V 15.032 Z M -24.73,0.295 c -0.211,-0.354 -0.664,-0.483 -1.041,-0.29 -0.191,0.099 -0.33,0.266 -0.39,0.472 -0.061,0.205 -0.034,0.419 0.072,0.605 l 10.428,18.065 v -3.566 z m 5.729,23.262 v 2.553 h 12.24 v -2.553 c 0,-0.42 -0.357,-0.776 -0.78,-0.776 h -1.813 c -0.005,0.019 -0.015,0.035 -0.02,0.054 -0.022,0.076 -0.055,0.146 -0.082,0.219 -0.046,0.126 -0.093,0.25 -0.152,0.368 -0.038,0.078 -0.084,0.149 -0.128,0.224 -0.063,0.105 -0.127,0.209 -0.2,0.307 -0.052,0.071 -0.108,0.139 -0.166,0.206 -0.078,0.091 -0.159,0.177 -0.245,0.26 -0.064,0.061 -0.129,0.12 -0.197,0.177 -0.093,0.077 -0.189,0.147 -0.29,0.214 -0.072,0.049 -0.144,0.098 -0.22,0.141 -0.108,0.063 -0.221,0.115 -0.337,0.167 -0.076,0.034 -0.149,0.07 -0.228,0.099 -0.131,0.049 -0.269,0.083 -0.406,0.116 -0.07,0.017 -0.136,0.04 -0.206,0.052 -0.212,0.038 -0.428,0.06 -0.65,0.06 -0.223,0 -0.439,-0.022 -0.651,-0.06 -0.072,-0.013 -0.139,-0.036 -0.209,-0.053 -0.138,-0.033 -0.275,-0.067 -0.405,-0.115 -0.08,-0.029 -0.153,-0.066 -0.23,-0.1 -0.115,-0.052 -0.228,-0.103 -0.337,-0.166 -0.076,-0.044 -0.147,-0.093 -0.221,-0.141 -0.099,-0.068 -0.197,-0.137 -0.289,-0.213 -0.068,-0.057 -0.132,-0.116 -0.197,-0.177 -0.086,-0.082 -0.167,-0.167 -0.244,-0.257 -0.059,-0.067 -0.113,-0.135 -0.166,-0.205 -0.072,-0.097 -0.136,-0.197 -0.197,-0.301 -0.045,-0.074 -0.089,-0.147 -0.128,-0.225 -0.057,-0.112 -0.103,-0.229 -0.147,-0.347 -0.028,-0.078 -0.06,-0.152 -0.084,-0.232 -0.008,-0.025 -0.019,-0.047 -0.026,-0.072 h -1.809 c -0.423,0 -0.78,0.356 -0.78,0.776 m -4.449,6.105 H -2.312 V 28.11 h -3.449 -14.24 -3.449 z m 8.919,-7.675 c 0.095,0.831 0.804,1.458 1.65,1.458 0.846,0 1.555,-0.627 1.657,-1.508 0.009,-0.051 0.013,-0.104 0.013,-0.156 0,-0.107 -0.011,-0.206 -0.046,-0.392 -0.003,-0.018 -0.012,-0.071 -0.051,-0.167 -0.017,-0.043 -0.047,-0.11 -0.058,-0.156 -0.032,-0.068 -0.071,-0.132 -0.125,-0.214 -0.067,-0.104 -0.151,-0.198 -0.276,-0.305 -0.17,-0.152 -0.35,-0.259 -0.574,-0.331 -0.139,-0.05 -0.247,-0.077 -0.263,-0.082 -0.03,0 -0.074,-0.004 -0.114,-0.008 l -0.257,0.003 -0.296,0.041 c -0.055,0.016 -0.114,0.033 -0.189,0.06 -0.186,0.058 -0.365,0.165 -0.548,0.328 -0.281,0.242 -0.459,0.581 -0.523,1.031 l -0.011,0.086 c -0.004,0.033 -0.009,0.059 -0.009,0.106 0,0.052 0.004,0.105 0.02,0.206 m -1.13,-20.375 c -0.056,-0.038 -0.111,-0.074 -0.158,-0.123 l -4.298,1.428 c -0.03,0.252 -0.153,0.484 -0.348,0.648 l 4.804,8.097 z m 10.21,1.305 -4.298,-1.428 c -0.1,0.104 -0.22,0.178 -0.352,0.23 v 9.943 l 4.884,-8.23 C -5.341,3.283 -5.428,3.109 -5.451,2.917 m -3.275,17.864 h 1.185 c 1.533,0 2.78,1.245 2.78,2.776 v 2.553 h 3.449 c 0.553,0 1,0.448 1,1 v 3.552 c 0,0.552 -0.447,1 -1,1 H -24.45 c -0.553,0 -1,-0.448 -1,-1 V 27.11 c 0,-0.552 0.447,-1 1,-1 h 3.449 v -2.553 c 0,-1.531 1.247,-2.776 2.78,-2.776 h 1.195 L -27.821,2.082 c -0.383,-0.665 -0.475,-1.435 -0.259,-2.17 0.217,-0.736 0.712,-1.334 1.404,-1.69 0.405,-0.209 0.84,-0.308 1.269,-0.308 0.953,0 1.879,0.49 2.396,1.36 l 1.546,2.605 c 0.017,-0.006 0.028,-0.02 0.045,-0.026 0.315,-0.104 0.634,-0.03 0.885,0.148 l 4.493,-1.491 c 0.066,-0.211 0.194,-0.39 0.381,-0.519 v -0.413 c 0,-1.531 1.247,-2.776 2.78,-2.776 1.533,0 2.78,1.245 2.78,2.776 v 0.302 c 0.289,0.115 0.487,0.35 0.575,0.63 l 4.493,1.491 c 0.219,-0.154 0.486,-0.217 0.762,-0.163 l 1.521,-2.564 c 0.514,-0.866 1.435,-1.356 2.392,-1.356 0.43,0 0.87,0.1 1.283,0.309 0.681,0.351 1.177,0.949 1.393,1.685 0.216,0.734 0.125,1.505 -0.257,2.169 z"
                            id="path156"
                            style="fill:#e01a4c;fill-opacity:1;fill-rule:nonzero;stroke:none"></path>
                    </g>
                    <g id="g158" transform="translate(46.041,42)">
                        <path
                            d="m 0,0 h -9.454 c 2.04,1.225 3.413,3.452 3.413,6 0,3.86 -3.141,7 -7,7 -3.859,0 -7,-3.14 -7,-7 0,-2.548 1.373,-4.775 3.413,-6 h -10.454 c -0.528,0 -0.959,0.435 -0.959,0.969 V 11 h 7 c 0.553,0 1,0.448 1,1 0,0.552 -0.447,1 -1,1 h -7 v 0.906 c 0,0.534 0.431,0.969 0.959,0.969 h 10.631 c 0.274,0 0.536,0.113 0.725,0.312 L -14.953,16 h 14.934 c 0.54,0 0.978,-0.445 0.978,-0.993 V 13 h -7 c -0.553,0 -1,-0.448 -1,-1 0,-0.552 0.447,-1 1,-1 h 7 V 0.969 C 0.959,0.435 0.528,0 0,0 m -18.041,6 c 0,2.757 2.243,5 5,5 2.757,0 5,-2.243 5,-5 0,-2.757 -2.243,-5 -5,-5 -2.757,0 -5,2.243 -5,5 m 18.022,12 h -15.364 c -0.274,0 -0.536,-0.113 -0.725,-0.312 l -0.773,-0.813 h -10.201 c -1.632,0 -2.959,-1.332 -2.959,-2.969 V 0.969 c 0,-1.637 1.327,-2.969 2.959,-2.969 H 0 c 1.632,0 2.959,1.332 2.959,2.969 V 15.007 C 2.959,16.658 1.623,18 -0.019,18"
                            id="path160"
                            style="fill:#e01a4c;fill-opacity:1;fill-rule:nonzero;stroke:none"></path>
                    </g>
                    <g id="g162" transform="translate(33,47)">
                        <path
                            d="M 0,0 C -0.552,0 -1,0.449 -1,1 -1,1.551 -0.552,2 0,2 0.552,2 1,1.551 1,1 1,0.449 0.552,0 0,0 m 0,4 c -1.654,0 -3,-1.346 -3,-3 0,-1.654 1.346,-3 3,-3 1.654,0 3,1.346 3,3 0,1.654 -1.346,3 -3,3"
                            id="path164"
                            style="fill:#e01a4c;fill-opacity:1;fill-rule:nonzero;stroke:none"></path>
                    </g>
                </g>
            </g>
        </g>
    </g>
</svg>